<?xml version="1.0" encoding="UTF-8"?>
<svg width="776" height="776" viewBox="0 0 776 776" fill="none" xmlns="http://www.w3.org/2000/svg">
<path d="M361.064 462.184V509.308C354.728 513.268 344.036 516.7 328.988 519.604C313.94 522.508 298.1 523.96 281.468 523.96C249.788 523.96 226.952 516.04 212.96 500.2C198.968 484.096 191.972 458.092 191.972 422.188C191.972 387.076 199.364 361.336 214.148 344.968C228.932 328.6 252.296 320.416 284.24 320.416C315.392 320.416 337.304 326.62 349.976 339.028C362.912 351.172 369.38 372.82 369.38 403.972C369.38 412.42 369.248 419.152 368.984 424.168C368.72 429.184 368.192 434.992 367.4 441.592H251.768C252.032 452.416 254.936 459.94 260.48 464.164C266.024 468.388 276.188 470.5 290.972 470.5C303.644 470.5 316.58 469.708 329.78 468.124C342.98 466.276 353.408 464.296 361.064 462.184ZM284.24 371.104C271.568 371.104 262.988 373.348 258.5 377.836C254.012 382.06 251.768 390.508 251.768 403.18H315.524V394.468C315.26 385.228 313.016 379.024 308.792 375.856C304.832 372.688 296.648 371.104 284.24 371.104ZM517.494 256.66H576.894V520H524.226L521.058 501.784H519.87C512.742 509.176 504.294 514.72 494.526 518.416C484.758 522.112 473.67 523.96 461.262 523.96C435.39 523.96 416.91 516.172 405.822 500.596C394.998 485.02 389.586 458.884 389.586 422.188C389.586 386.548 396.45 360.676 410.178 344.572C424.17 328.468 446.742 320.416 477.894 320.416C485.55 320.416 492.678 320.944 499.278 322C506.142 322.792 512.214 323.98 517.494 325.564V256.66ZM486.21 373.876C470.37 373.876 460.206 376.912 455.718 382.984C451.23 388.792 448.986 401.86 448.986 422.188C448.986 441.46 450.966 454.132 454.926 460.204C458.886 466.012 468.126 468.916 482.646 468.916C489.51 468.916 495.846 468.388 501.654 467.332C507.726 466.276 513.006 464.692 517.494 462.58V379.024C513.534 377.176 508.914 375.856 503.634 375.064C498.618 374.272 492.81 373.876 486.21 373.876Z" fill="#2C42A7"/>
</svg>
