<svg width="107" height="102" viewBox="0 0 107 102" fill="none" xmlns="http://www.w3.org/2000/svg">
<g filter="url(#filter0_d_1206_8978)">
<ellipse cx="53.5" cy="47" rx="49.5" ry="47" fill="#2C42A7"/>
</g>
<g filter="url(#filter1_i_1206_8978)">
<path d="M52.9229 49.8496L54.1094 50.7285C53.7578 53.2188 52.9082 55.5771 51.5605 57.8037C50.2129 60.001 48.4844 61.7881 46.375 63.165C44.2656 64.542 41.8779 65.2305 39.2119 65.2305C35.7256 65.2305 32.7959 64.3076 30.4229 62.4619C28.0791 60.5869 26.3066 58.1992 25.1055 55.2988C23.9043 52.3691 23.3037 49.3223 23.3037 46.1582C23.3037 42.6719 23.9189 39.4346 25.1494 36.4463C26.3799 33.458 28.2402 31.0557 30.7305 29.2393C33.2207 27.4229 36.3701 26.5146 40.1787 26.5146C44.5732 26.5146 47.9863 27.9209 50.418 30.7334C52.8789 33.5166 54.1094 37.0469 54.1094 41.3242H28.9727C28.9727 43.9316 29.4414 46.583 30.3789 49.2783C31.3164 51.9443 32.7666 54.1709 34.7295 55.958C36.6924 57.7451 39.1973 58.6387 42.2441 58.6387C45.0273 58.6387 47.2539 57.8037 48.9238 56.1338C50.623 54.4346 51.9561 52.3398 52.9229 49.8496ZM28.9727 39.0391H45.8037C45.8037 37.4277 45.5254 35.8896 44.9688 34.4248C44.4414 32.9307 43.5918 31.7148 42.4199 30.7773C41.2773 29.8398 39.7832 29.3711 37.9375 29.3711C35.2129 29.3711 33.0889 30.3672 31.5654 32.3594C30.042 34.3516 29.1777 36.5781 28.9727 39.0391ZM91.9463 14.3418C91.9463 15.0742 91.6094 15.792 90.9355 16.4951C90.2617 17.1982 89.5146 17.5498 88.6943 17.5498C87.8154 17.5498 87.0391 17.1982 86.3652 16.4951C85.6914 15.7627 85.0029 14.9277 84.2998 13.9902C83.626 13.0527 82.8496 12.2324 81.9707 11.5293C81.1211 10.7969 80.0518 10.4307 78.7627 10.4307C77.0635 10.4307 75.8184 11.0605 75.0273 12.3203C74.2363 13.5508 73.7383 15.1768 73.5332 17.1982C73.3281 19.2197 73.2256 21.3877 73.2256 23.7021V27.6133H82.6738V30.5137H73.2256V54.4199C73.2256 56.8516 73.416 58.6387 73.7969 59.7812C74.207 60.9238 75.0127 61.6562 76.2139 61.9785C77.415 62.3008 79.2314 62.4619 81.6631 62.4619V64H59.7344V62.4619C61.8438 62.4619 63.3818 62.1982 64.3486 61.6709C65.3447 61.1436 65.9893 60.2939 66.2822 59.1221C66.5752 57.9209 66.7217 56.3535 66.7217 54.4199V30.5137H59.5146V27.6133H66.7217V25.1523C66.7217 22.0469 67.2783 19.1611 68.3916 16.4951C69.5342 13.7998 71.2188 11.6318 73.4453 9.99121C75.7012 8.35059 78.5137 7.53027 81.8828 7.53027C83.084 7.53027 84.4756 7.79395 86.0576 8.32129C87.6396 8.84863 89.0166 9.625 90.1885 10.6504C91.3604 11.6465 91.9463 12.877 91.9463 14.3418Z" fill="white"/>
</g>
<defs>
<filter id="filter0_d_1206_8978" x="0" y="0" width="107" height="102" filterUnits="userSpaceOnUse" color-interpolation-filters="sRGB">
<feFlood flood-opacity="0" result="BackgroundImageFix"/>
<feColorMatrix in="SourceAlpha" type="matrix" values="0 0 0 0 0 0 0 0 0 0 0 0 0 0 0 0 0 0 127 0" result="hardAlpha"/>
<feOffset dy="4"/>
<feGaussianBlur stdDeviation="2"/>
<feComposite in2="hardAlpha" operator="out"/>
<feColorMatrix type="matrix" values="0 0 0 0 0 0 0 0 0 0 0 0 0 0 0 0 0 0 0.25 0"/>
<feBlend mode="normal" in2="BackgroundImageFix" result="effect1_dropShadow_1206_8978"/>
<feBlend mode="normal" in="SourceGraphic" in2="effect1_dropShadow_1206_8978" result="shape"/>
</filter>
<filter id="filter1_i_1206_8978" x="23.3047" y="7.53125" width="68.6406" height="61.7031" filterUnits="userSpaceOnUse" color-interpolation-filters="sRGB">
<feFlood flood-opacity="0" result="BackgroundImageFix"/>
<feBlend mode="normal" in="SourceGraphic" in2="BackgroundImageFix" result="shape"/>
<feColorMatrix in="SourceAlpha" type="matrix" values="0 0 0 0 0 0 0 0 0 0 0 0 0 0 0 0 0 0 127 0" result="hardAlpha"/>
<feOffset dy="4"/>
<feGaussianBlur stdDeviation="2"/>
<feComposite in2="hardAlpha" operator="arithmetic" k2="-1" k3="1"/>
<feColorMatrix type="matrix" values="0 0 0 0 0 0 0 0 0 0 0 0 0 0 0 0 0 0 0.25 0"/>
<feBlend mode="normal" in2="shape" result="effect1_innerShadow_1206_8978"/>
</filter>
</defs>
</svg>
